# xmcd
# 
# Track frame offsets:
#     150
#     7520
#     21932
#     35251
#     49010
#     64461
#     82913
#     96387
#     112133
#     126827
#     142160
#     156305
#     171884
#     185646
#     201852
#     215298
#     230332
#     244893
# 
# Disc length: 3378
# 
# Revision: 2
# Processed by: cddbd v1.5.2PL0 Copyright (c) Steve Scherf et al.
# Submitted via: BonkEnc v1.0.6
# 
DISCID=fd0d3012
DTITLE=Victor and Léo - Ao Vivo e em Cores em São Paulo
DYEAR=2009
DGENRE=Country
TTITLE0=Abertura
TTITLE1=Borboletas
TTITLE2=Estrela Cadente
TTITLE3=Você Sabia
TTITLE4=Ao Vivo e em Cores
TTITLE5=DEUS e Eu no Sertão
TTITLE6=Muito Natural
TTITLE7=Sem Trânsito, Sem Avião
TTITLE8=Não Mais
TTITLE9=Anunciação
TTITLE10=Timidez
TTITLE11=Cavalo Enxuto
TTITLE12=Lado Errado
TTITLE13=Vida Boa
TTITLE14=Tanta Solidão
TTITLE15=Moça Rebelde
TTITLE16=Nada Normal
TTITLE17=Lem Casa
EXTD=
EXTT0=
EXTT1=
EXTT2=
EXTT3=
EXTT4=
EXTT5=
EXTT6=
EXTT7=
EXTT8=
EXTT9=
EXTT10=
EXTT11=
EXTT12=
EXTT13=
EXTT14=
EXTT15=
EXTT16=
EXTT17=
PLAYORDER=
